<?xml version="1.0" encoding="UTF-8"?>
<!DOCTYPE svg PUBLIC "-//W3C//DTD SVG 1.1//EN" "http://www.w3.org/Graphics/SVG/1.1/DTD/svg11.dtd">
<svg version="1.1" xmlns="http://www.w3.org/2000/svg" xmlns:xlink="http://www.w3.org/1999/xlink" x="0" y="0" width="100%" height="100%" id="sec2WavesTop" viewBox="0 0 1440 1900" class="transition duration-300 ease-in-out delay-150">
				<defs>
					<linearGradient id="gradient" x1="0%" y1="50%" x2="100%" y2="50%">
						<stop offset="5%" stop-color="#ffffff"></stop>
						<stop offset="95%" stop-color="#dfdfdf"></stop>
					</linearGradient>
				</defs>
				<defs>
					<linearGradient id="gradientOld" x1="0%" y1="50%" x2="100%" y2="50%">
						<stop offset="5%" stop-color="#ffff00"></stop>
						<stop offset="95%" stop-color="#e94500"></stop>
					</linearGradient>
				</defs>
				<path d="M 0,500 C 0,500 0,166 0,166 C 60,200 120,234 195,227 C 269,219 359,169 445,158 C 530,146 613,172 697,187 C 780,201 865,203 944,197 C 1022,190 1093,175 1175,169 C 1256,162 1348,164 1440,166 C 1440,166 1440,500 1440,500 L 1440 0 L 0 0 Z" stroke="none" stroke-width="0" fill="url(#gradientOld)" fill-opacity="1" class="transition-all duration-300 ease-in-out delay-150 path-0"></path>
				<path d="M 0,500 C 0,500 0,166 0,166 C 60,200 120,234 195,227 C 269,219 359,169 445,158 C 530,146 613,172 697,187 C 780,201 865,203 944,197 C 1022,190 1093,175 1175,169 C 1256,162 1348,164 1440,166 C 1440,166 1440,500 1440,500 Z" stroke="none" stroke-width="0" fill="url(#gradient)" fill-opacity="0.53" class="transition-all duration-300 ease-in-out delay-150 path-0"></path>
				<path d="M 0,495 H 1440 V 1900 H 0 Z" stroke="none" stroke-width="0" fill="url(#gradient)" fill-opacity="1" class="transition-all duration-300 ease-in-out delay-150 path-0"></path>
				<path d="M 0,500 C 0,500 0,333 0,333 C 92,317 184,302 262,294 C 339,285 402,284 485,277 C 567,269 670,256 758,280 C 845,303 918,363 987,376 C 1055,388 1121,354 1196,340 C 1270,325 1355,329 1440,333 C 1440,333 1440,500 1440,500 Z" stroke="none" stroke-width="0" fill="url(#gradient)" fill-opacity="1" class="transition-all duration-300 ease-in-out delay-150 path-1"></path>
			</svg>

