<?xml version="1.0" standalone="no"?>
<!DOCTYPE svg PUBLIC "-//W3C//DTD SVG 20010904//EN" "http://www.w3.org/TR/2001/REC-SVG-20010904/DTD/svg10.dtd">
<!-- Created using Krita: http://krita.org -->
<svg xmlns="http://www.w3.org/2000/svg" 
    xmlns:xlink="http://www.w3.org/1999/xlink"
    xmlns:krita="http://krita.org/namespaces/svg/krita"
    xmlns:sodipodi="http://sodipodi.sourceforge.net/DTD/sodipodi-0.dtd"
    width="56.475pt"
    height="49.275pt"
    viewBox="0 0 56.475 49.275">
<defs/>
<path id="shape0" transform="matrix(1.00000005403732 0 0 0.999999938066815 0.19194924743297 0.246600747666688)" fill="#ffffff" fill-rule="evenodd" stroke="#000000" stroke-width="0.45" stroke-linecap="square" stroke-linejoin="bevel" d="M0 24.4703L13.9831 0.158898L42.1081 0L56.0911 24.4703L42.1081 48.7818L13.5064 48.7818L0 24.4703"/><path id="shape01" transform="matrix(1.00000006665384 0 0 0.999999946601193 5.97184585375714 5.27331286451906)" fill="#000000" fill-rule="evenodd" stroke="#ffffff" stroke-width="0.45" stroke-linecap="square" stroke-linejoin="bevel" d="M0 19.4272L11.1013 0.126151L33.4301 0L44.5313 19.4272L33.4301 38.7284L10.7229 38.7284L0 19.4272"/><path id="shape02" transform="matrix(1.00000007277881 0 0 0.999999935033133 11.4004115446066 9.99446450102374)" fill="#ffffff" fill-rule="evenodd" stroke="#000000" stroke-width="0.45" stroke-linecap="square" stroke-linejoin="bevel" d="M0 14.6907L8.3947 0.0953943L25.2795 0L33.6742 14.6907L25.2795 29.2861L8.10856 29.2861L0 14.6907"/><path id="shape03" transform="matrix(1.00000008649373 0 0 0.99999989773265 15.537823559086 13.5927261371768)" fill="#000000" fill-rule="evenodd" stroke="#ffffff" stroke-width="0.45" stroke-linecap="square" stroke-linejoin="bevel" d="M0 11.0807L6.33185 0.0719528L19.0675 0L25.3994 11.0807L19.0675 22.0895L6.11602 22.0895L0 11.0807"/><path id="shape04" transform="matrix(1.00000004743634 0 0 0.999999905361938 19.9008853571597 17.3872648373667)" fill="#ffffff" fill-rule="evenodd" stroke="#000000" stroke-width="0.45" stroke-linecap="square" stroke-linejoin="bevel" d="M0 7.27383L4.15649 0.0472328L12.5167 0L16.6732 7.27383L12.5167 14.5005L4.01481 14.5005L0 7.27383"/><path id="shape05" transform="matrix(1.0000000568665 0 0 0.999999958615777 22.088618590566 19.289885497848)" fill="#000000" fill-rule="evenodd" stroke="#ffffff" stroke-width="0.45" stroke-linecap="square" stroke-linejoin="bevel" d="M0 5.36501L3.06573 0.0348378L9.23202 0L12.2978 5.36501L9.23202 10.6952L2.96123 10.6952L0 5.36501"/>
</svg>
